<?xml version="1.0" standalone="no"?>
<!DOCTYPE svg PUBLIC "-//W3C//DTD SVG 20010904//EN"
 "http://www.w3.org/TR/2001/REC-SVG-20010904/DTD/svg10.dtd">
<svg version="1.0" xmlns="http://www.w3.org/2000/svg"
 width="1000.000000pt" height="1000.000000pt" viewBox="0 0 1000.000000 1000.000000"
 preserveAspectRatio="xMidYMid meet">
<metadata>
Created by potrace 1.14, written by Peter Selinger 2001-2017
</metadata>
<g transform="translate(0.000000,1000.000000) scale(0.100000,-0.100000)"
fill="#000000" stroke="none">
<path d="M3988 9695 c-2 -2 -39 -6 -83 -9 -44 -3 -89 -7 -100 -10 -11 -2 -42
-7 -69 -10 -122 -17 -284 -63 -416 -118 -74 -31 -262 -139 -288 -165 -7 -7
-16 -13 -20 -13 -4 0 -24 -16 -45 -35 -20 -19 -43 -38 -51 -42 -18 -10 -105
-93 -176 -169 -172 -182 -339 -431 -486 -724 -76 -152 -184 -394 -184 -415 0
-23 -35 -42 -140 -75 -58 -18 -112 -37 -120 -41 -8 -4 -53 -25 -100 -46 -601
-269 -1021 -763 -1160 -1363 -12 -52 -23 -104 -25 -115 -7 -55 -17 -134 -20
-170 -7 -59 -6 -269 0 -349 6 -76 8 -92 42 -276 9 -55 44 -180 71 -260 67
-197 129 -325 300 -620 30 -52 68 -120 85 -150 25 -46 111 -191 147 -250 5 -8
46 -76 91 -150 l81 -135 4 -190 c4 -284 16 -501 39 -715 2 -19 6 -62 10 -95 3
-33 8 -67 10 -75 2 -8 7 -40 10 -70 3 -30 7 -66 10 -80 2 -14 11 -68 20 -120
10 -52 19 -106 21 -120 5 -35 70 -323 89 -395 9 -33 18 -67 20 -75 24 -105
134 -420 200 -570 310 -702 788 -1114 1405 -1210 41 -6 89 -14 105 -17 17 -2
104 -6 195 -7 299 -5 555 33 910 135 1147 328 2576 1238 3885 2474 237 224
488 478 588 596 252 298 434 628 526 958 17 58 32 117 35 131 3 14 9 48 15 76
5 27 13 84 17 125 3 40 8 77 11 81 5 9 4 380 -2 438 -15 147 -18 164 -60 325
-71 269 -145 467 -266 708 -163 325 -410 688 -676 993 -179 206 -243 273 -425
449 -119 115 -249 235 -333 306 -22 19 -51 44 -65 56 -14 11 -59 49 -100 83
-41 34 -84 69 -95 78 -75 63 -399 299 -540 393 -212 142 -267 177 -435 274
-74 43 -157 91 -183 106 -27 16 -53 29 -58 29 -5 0 -26 10 -47 23 -49 31 -268
137 -447 217 -419 188 -918 333 -1330 386 -38 5 -393 13 -397 9z"/>
</g>
</svg>
